<?xml version="1.0" standalone="no"?>
<!DOCTYPE svg PUBLIC "-//W3C//DTD SVG 20010904//EN"
 "http://www.w3.org/TR/2001/REC-SVG-20010904/DTD/svg10.dtd">
<svg version="1.0" xmlns="http://www.w3.org/2000/svg"
 width="1150.000000pt" height="587.000000pt" viewBox="0 0 1150.000000 587.000000"
 preserveAspectRatio="xMidYMid meet">

<g transform="translate(0.000000,587.000000) scale(0.100000,-0.100000)"
fill="#000000" stroke="none">
<path d="M10651 5505 c-242 -67 -316 -362 -134 -537 59 -57 124 -82 213 -82
130 0 234 66 289 183 54 115 27 264 -64 356 -76 76 -200 108 -304 80z m201
-42 c103 -46 163 -142 163 -263 0 -119 -53 -207 -158 -262 -59 -32 -194 -33
-252 -1 -139 74 -198 239 -135 381 28 65 105 136 169 157 59 19 154 14 213
-12z"/>
<path d="M10610 5205 l0 -165 25 0 c24 0 25 3 25 60 l0 60 38 0 c35 0 41 -5
80 -60 39 -54 46 -60 78 -60 l36 0 -46 64 c-43 61 -45 65 -25 71 25 8 59 61
59 93 0 35 -25 77 -55 90 -14 7 -68 12 -120 12 l-95 0 0 -165z m190 95 c46
-46 8 -90 -80 -90 l-60 0 0 55 0 55 60 0 c47 0 64 -4 80 -20z"/>
<path d="M9231 4828 c-15 -35 -281 -658 -591 -1385 -310 -728 -567 -1323 -570
-1323 -12 0 -592 1371 -587 1388 2 10 133 319 291 688 157 370 286 675 286
678 0 3 -129 6 -287 6 l-288 0 -294 -691 -294 -690 21 -52 c12 -29 145 -340
295 -692 l273 -640 583 0 584 0 239 560 c131 308 331 777 445 1043 113 265
208 481 210 478 3 -3 205 -472 448 -1043 l443 -1038 291 -3 290 -2 -29 67
c-16 38 -282 663 -592 1390 l-563 1323 -288 0 -288 0 -28 -62z"/>
<path d="M320 3495 l0 -1385 275 0 275 0 0 555 0 555 555 0 555 0 0 -555 0
-555 275 0 275 0 0 1385 0 1385 -275 0 -275 0 0 -555 0 -555 -555 0 -555 0 0
555 0 555 -275 0 -275 0 0 -1385z"/>
<path d="M3180 4605 l0 -275 955 0 955 0 0 275 0 275 -955 0 -955 0 0 -275z"/>
<path d="M5734 4862 c4 -10 135 -320 292 -688 178 -419 283 -676 280 -689 -3
-11 -135 -325 -294 -698 l-290 -677 291 2 291 3 273 640 c150 352 283 663 295
692 l21 52 -294 690 -294 691 -288 0 c-275 0 -288 -1 -283 -18z"/>
<path d="M3180 3495 l0 -275 955 0 955 0 0 275 0 275 -955 0 -955 0 0 -275z"/>
<path d="M3180 2385 l0 -275 955 0 955 0 0 275 0 275 -955 0 -955 0 0 -275z"/>
<path d="M2252 1271 c-243 -84 -351 -366 -234 -609 32 -65 115 -145 184 -177
157 -71 362 -46 506 62 l32 24 0 170 0 169 -175 0 -175 0 0 -60 0 -60 105 0
105 0 0 -81 0 -80 -56 -26 c-74 -34 -154 -40 -230 -18 -47 13 -69 27 -110 69
-67 69 -88 130 -82 235 7 120 57 200 155 247 96 47 216 33 313 -36 l30 -21 28
32 c69 83 68 73 12 109 -28 18 -77 41 -111 51 -81 25 -224 25 -297 0z"/>
<path d="M5235 1277 c-72 -24 -128 -58 -179 -111 -166 -167 -162 -444 9 -605
211 -200 564 -135 688 127 30 63 32 73 32 182 0 109 -2 119 -32 182 -41 88
-113 160 -201 201 -60 28 -78 32 -172 34 -67 2 -120 -2 -145 -10z m252 -143
c100 -48 158 -149 157 -274 -2 -89 -32 -158 -96 -215 -110 -99 -262 -98 -368
1 -72 67 -94 120 -94 224 1 97 15 139 70 200 90 100 208 122 331 64z"/>
<path d="M3520 871 l0 -411 70 0 69 0 3 143 3 142 91 3 91 3 102 -146 102
-145 80 0 c43 0 79 3 79 6 0 3 -44 67 -98 142 -54 75 -101 142 -105 149 -5 8
9 19 41 33 96 42 144 117 144 230 0 111 -48 188 -144 231 -50 22 -66 24 -290
27 l-238 4 0 -411z m457 262 c47 -22 73 -66 73 -125 0 -39 -6 -54 -31 -82 -41
-47 -79 -56 -231 -56 l-128 0 0 140 0 140 141 0 c111 0 148 -4 176 -17z"/>
<path d="M6552 993 c4 -273 5 -291 27 -348 50 -127 161 -196 316 -197 180 -1
286 66 341 218 15 41 18 93 22 332 l4 282 -70 0 -70 0 -4 -272 c-3 -251 -5
-277 -24 -318 -27 -59 -71 -95 -135 -110 -104 -25 -206 21 -245 113 -16 37
-19 77 -22 315 l-3 272 -71 0 -70 0 4 -287z"/>
<path d="M8050 871 l0 -411 70 0 70 0 0 129 0 128 128 6 c163 6 219 24 289 92
84 81 104 197 55 307 -25 57 -65 95 -132 127 -53 25 -63 26 -267 29 l-213 4 0
-411z m415 259 c52 -25 75 -64 75 -127 0 -63 -28 -109 -83 -133 -33 -16 -65
-20 -154 -20 l-113 0 0 150 0 150 117 0 c96 0 124 -4 158 -20z"/>
</g>
</svg>
